<svg xmlns="http://www.w3.org/2000/svg" role="img" viewBox="0 0 24 24" fill="none">
  <title>Zustand</title>
  <path d="M4 8.5C4 6.57 5.57 5 7.5 5H9l.9-1.35a1 1 0 0 1 1.66 0L12.5 5H16.5C18.43 5 20 6.57 20 8.5V14c0 3.31-2.69 6-6 6h-4c-3.31 0-6-2.69-6-6V8.5Z" fill="#F59E0B"/>
  <circle cx="9" cy="10.25" r="1" fill="#111827"/>
  <circle cx="15" cy="10.25" r="1" fill="#111827"/>
  <path d="M8.2 13.4c.82.96 1.96 1.45 3.4 1.45 1.44 0 2.58-.49 3.4-1.45" stroke="#111827" stroke-width="1.4" stroke-linecap="round"/>
</svg>
